<svg xmlns="http://www.w3.org/2000/svg" viewBox="0 0 240 240" fill="none">
  <!-- Background -->
  <circle cx="120" cy="120" r="110" fill="#FFF0E6"/>

  <!-- Large speech bubble -->
  <path d="M40 60 Q40 30 70 30 L170 30 Q200 30 200 60 L200 130 Q200 160 170 160 L130 160 L110 190 L100 160 L70 160 Q40 160 40 130Z" fill="white" stroke="#EAD9CC" stroke-width="3"/>

  <!-- "mamá" word inside bubble -->
  <!-- Letter m -->
  <path d="M62 115 L62 85 L78 105 L94 85 L94 115" stroke="#E07B39" stroke-width="6" stroke-linecap="round" stroke-linejoin="round" fill="none"/>
  <!-- Letter a -->
  <path d="M100 115 L100 88 Q100 82 106 80 Q114 78 118 83 L118 115" stroke="#9B8EC4" stroke-width="6" stroke-linecap="round" fill="none"/>
  <path d="M100 100 L118 100" stroke="#9B8EC4" stroke-width="6" stroke-linecap="round"/>
  <!-- Letter m -->
  <path d="M124 115 L124 85 L138 105 L152 85 L152 115" stroke="#E07B39" stroke-width="6" stroke-linecap="round" stroke-linejoin="round" fill="none"/>
  <!-- Letter á -->
  <path d="M158 115 L158 88 Q158 82 164 80 Q172 78 176 83 L176 115" stroke="#9B8EC4" stroke-width="6" stroke-linecap="round" fill="none"/>
  <path d="M158 100 L176 100" stroke="#9B8EC4" stroke-width="6" stroke-linecap="round"/>
  <!-- Accent on á -->
  <path d="M163 72 L168 66" stroke="#9B8EC4" stroke-width="3" stroke-linecap="round"/>

  <!-- Stars exploding around bubble -->
  <path d="M32 40 L33.5 45 L38.5 45 L34.5 48 L36 53 L32 50.5 L28 53 L29.5 48 L25.5 45 L30.5 45Z" fill="#F5A623" opacity="0.8"/>
  <path d="M208 38 L209.5 43 L214.5 43 L210.5 46 L212 51 L208 48.5 L204 51 L205.5 46 L201.5 43 L206.5 43Z" fill="#E8847A" opacity="0.8"/>
  <path d="M210 165 L211 169 L215 169 L212 171.5 L213 175.5 L210 173.5 L207 175.5 L208 171.5 L205 169 L209 169Z" fill="#4CAF82" opacity="0.7"/>
  <path d="M24 140 L25 144 L29 144 L26 146.5 L27 150.5 L24 148.5 L21 150.5 L22 146.5 L19 144 L23 144Z" fill="#9B8EC4" opacity="0.65"/>

  <!-- Confetti dots -->
  <circle cx="44" cy="180" r="5" fill="#F5A623" opacity="0.6"/>
  <circle cx="196" cy="185" r="5" fill="#E07B39" opacity="0.55"/>
  <circle cx="60" cy="200" r="4" fill="#9B8EC4" opacity="0.5"/>
  <circle cx="180" cy="205" r="4" fill="#4CAF82" opacity="0.5"/>
</svg>
