<svg xmlns="http://www.w3.org/2000/svg" viewBox="0 0 240 240" fill="none">
  <!-- Background -->
  <circle cx="120" cy="120" r="110" fill="#FFF0E6"/>

  <!-- Trophy body -->
  <rect x="90" y="100" width="60" height="70" rx="12" fill="#F5A623"/>
  <!-- Trophy shine -->
  <rect x="96" y="106" width="18" height="58" rx="8" fill="white" opacity="0.18"/>
  <!-- Trophy top handles -->
  <path d="M90 112 Q70 112 70 128 Q70 144 90 144" stroke="#F5A623" stroke-width="10" stroke-linecap="round" fill="none"/>
  <path d="M150 112 Q170 112 170 128 Q170 144 150 144" stroke="#F5A623" stroke-width="10" stroke-linecap="round" fill="none"/>
  <!-- Trophy base -->
  <rect x="98" y="168" width="44" height="10" rx="4" fill="#E07B39"/>
  <rect x="88" y="176" width="64" height="12" rx="6" fill="#C4622A"/>

  <!-- Star on trophy -->
  <path d="M120 112 L122.5 120 L130.5 120 L124.5 125 L126.5 133 L120 128.5 L113.5 133 L115.5 125 L109.5 120 L117.5 120Z" fill="white" opacity="0.85"/>

  <!-- Confetti bursting -->
  <!-- Stars -->
  <path d="M46 58 L47.5 63 L52.5 63 L48.5 66 L50 71 L46 68.5 L42 71 L43.5 66 L39.5 63 L44.5 63Z" fill="#E07B39" opacity="0.8"/>
  <path d="M196 54 L197.5 59 L202.5 59 L198.5 62 L200 67 L196 64.5 L192 67 L193.5 62 L189.5 59 L194.5 59Z" fill="#9B8EC4" opacity="0.8"/>
  <path d="M38 130 L39 134 L43 134 L40 136.5 L41 140.5 L38 138.5 L35 140.5 L36 136.5 L33 134 L37 134Z" fill="#4CAF82" opacity="0.7"/>
  <path d="M202 132 L203 136 L207 136 L204 138.5 L205 142.5 L202 140.5 L199 142.5 L200 138.5 L197 136 L201 136Z" fill="#E8847A" opacity="0.7"/>

  <!-- Ribbon strips -->
  <path d="M62 82 Q72 70 80 84" stroke="#E8847A" stroke-width="5" stroke-linecap="round" fill="none" opacity="0.7"/>
  <path d="M178 80 Q168 68 160 82" stroke="#4CAF82" stroke-width="5" stroke-linecap="round" fill="none" opacity="0.7"/>
  <path d="M48 170 Q58 158 66 172" stroke="#9B8EC4" stroke-width="4" stroke-linecap="round" fill="none" opacity="0.6"/>
  <path d="M192 170 Q182 158 174 172" stroke="#F5A623" stroke-width="4" stroke-linecap="round" fill="none" opacity="0.6"/>

  <!-- Colorful dots -->
  <circle cx="64" cy="46" r="6" fill="#E07B39" opacity="0.55"/>
  <circle cx="178" cy="48" r="7" fill="#F5A623" opacity="0.55"/>
  <circle cx="40" cy="100" r="5" fill="#9B8EC4" opacity="0.5"/>
  <circle cx="200" cy="102" r="5" fill="#4CAF82" opacity="0.5"/>
  <circle cx="52" cy="200" r="5" fill="#E8847A" opacity="0.5"/>
  <circle cx="188" cy="198" r="5" fill="#6DB8D4" opacity="0.5"/>
  <circle cx="92" cy="44" r="4" fill="#4CAF82" opacity="0.45"/>
  <circle cx="150" cy="42" r="4" fill="#E8847A" opacity="0.45"/>
</svg>
