<svg xmlns="http://www.w3.org/2000/svg" viewBox="0 0 240 240" fill="none">
  <!-- Background -->
  <circle cx="120" cy="120" r="110" fill="#FFF0E6"/>

  <!-- Outer glow ring -->
  <circle cx="120" cy="108" r="82" fill="#F5A623" opacity="0.1"/>
  <circle cx="120" cy="108" r="82" stroke="#F5A623" stroke-width="2.5" opacity="0.35" stroke-dasharray="8 5"/>

  <!-- Main circle -->
  <circle cx="120" cy="108" r="66" fill="#F5A623"/>
  <!-- Shine -->
  <ellipse cx="102" cy="82" rx="22" ry="14" fill="white" opacity="0.18" transform="rotate(-25 102 82)"/>

  <!-- "30" text -->
  <!-- "3" -->
  <path d="M86 80 Q102 72 104 90 Q106 100 96 104 Q106 108 104 118 Q102 136 86 128"
    stroke="white" stroke-width="7" stroke-linecap="round" stroke-linejoin="round" fill="none"/>
  <!-- "0" -->
  <ellipse cx="128" cy="104" rx="16" ry="24" stroke="white" stroke-width="7" fill="none"/>

  <!-- "días" text area (small tag below) -->
  <rect x="96" y="148" width="48" height="18" rx="9" fill="white" opacity="0.85"/>
  <rect x="104" y="153" width="32" height="8" rx="4" fill="#F5A623" opacity="0.6"/>

  <!-- Ribbon left -->
  <path d="M76 180 Q90 168 104 180 L96 210 L76 196Z" fill="#C4622A"/>
  <!-- Ribbon right -->
  <path d="M164 180 Q150 168 136 180 L144 210 L164 196Z" fill="#C4622A"/>
  <!-- Ribbon center -->
  <rect x="100" y="176" width="40" height="16" rx="4" fill="#E07B39"/>

  <!-- Confetti explosion -->
  <path d="M38 48 L39.5 53 L44.5 53 L40.5 56 L42 61 L38 58.5 L34 61 L35.5 56 L31.5 53 L36.5 53Z" fill="#E07B39" opacity="0.75"/>
  <path d="M202 44 L203.5 49 L208.5 49 L204.5 52 L206 57 L202 54.5 L198 57 L199.5 52 L195.5 49 L200.5 49Z" fill="#9B8EC4" opacity="0.75"/>
  <path d="M30 130 L31 134 L35 134 L32 136.5 L33 140.5 L30 138.5 L27 140.5 L28 136.5 L25 134 L29 134Z" fill="#4CAF82" opacity="0.7"/>
  <path d="M210 130 L211 134 L215 134 L212 136.5 L213 140.5 L210 138.5 L207 140.5 L208 136.5 L205 134 L209 134Z" fill="#E8847A" opacity="0.7"/>

  <!-- Colorful ribbon strips -->
  <path d="M52 74 Q62 62 70 76" stroke="#E8847A" stroke-width="5" stroke-linecap="round" fill="none" opacity="0.65"/>
  <path d="M188 72 Q178 60 170 74" stroke="#4CAF82" stroke-width="5" stroke-linecap="round" fill="none" opacity="0.65"/>
  <path d="M40 168 Q50 156 58 170" stroke="#6DB8D4" stroke-width="4" stroke-linecap="round" fill="none" opacity="0.55"/>
  <path d="M200 168 Q190 156 182 170" stroke="#F5A623" stroke-width="4" stroke-linecap="round" fill="none" opacity="0.55"/>

  <!-- Dots -->
  <circle cx="68" cy="44" r="6" fill="#F5A623" opacity="0.5"/>
  <circle cx="172" cy="42" r="6" fill="#E8847A" opacity="0.5"/>
  <circle cx="56" cy="210" r="5" fill="#9B8EC4" opacity="0.45"/>
  <circle cx="184" cy="212" r="5" fill="#4CAF82" opacity="0.45"/>
</svg>
