<svg xmlns="http://www.w3.org/2000/svg" viewBox="0 0 240 240" fill="none">
  <!-- Background -->
  <circle cx="120" cy="120" r="110" fill="#FFF0E6"/>

  <!-- Calendar body -->
  <rect x="44" y="68" width="152" height="140" rx="14" fill="white" stroke="#EAD9CC" stroke-width="2"/>
  <!-- Calendar header -->
  <rect x="44" y="68" width="152" height="40" rx="14" fill="#E07B39"/>
  <rect x="44" y="92" width="152" height="16" fill="#E07B39"/>

  <!-- Header binding knobs -->
  <rect x="80" y="56" width="12" height="28" rx="6" fill="#C4622A"/>
  <rect x="148" y="56" width="12" height="28" rx="6" fill="#C4622A"/>

  <!-- Header month text placeholder (lines) -->
  <rect x="88" y="80" width="64" height="8" rx="4" fill="white" opacity="0.5"/>

  <!-- Grid lines -->
  <!-- Day headers row -->
  <rect x="58" y="116" width="18" height="6" rx="3" fill="#EAD9CC"/>
  <rect x="82" y="116" width="18" height="6" rx="3" fill="#EAD9CC"/>
  <rect x="106" y="116" width="18" height="6" rx="3" fill="#EAD9CC"/>
  <rect x="130" y="116" width="18" height="6" rx="3" fill="#EAD9CC"/>
  <rect x="154" y="116" width="18" height="6" rx="3" fill="#EAD9CC"/>

  <!-- Row 1 empty circles -->
  <circle cx="67" cy="142" r="10" fill="#EAD9CC" opacity="0.4" stroke="#EAD9CC" stroke-width="1.5"/>
  <circle cx="91" cy="142" r="10" fill="#EAD9CC" opacity="0.4" stroke="#EAD9CC" stroke-width="1.5"/>
  <circle cx="115" cy="142" r="10" fill="#EAD9CC" opacity="0.4" stroke="#EAD9CC" stroke-width="1.5"/>
  <circle cx="139" cy="142" r="10" fill="#EAD9CC" opacity="0.4" stroke="#EAD9CC" stroke-width="1.5"/>
  <circle cx="163" cy="142" r="10" fill="#EAD9CC" opacity="0.4" stroke="#EAD9CC" stroke-width="1.5"/>
  <circle cx="187" cy="142" r="10" fill="#EAD9CC" opacity="0.4" stroke="#EAD9CC" stroke-width="1.5"/>

  <!-- Row 2 -->
  <circle cx="67" cy="168" r="10" fill="#EAD9CC" opacity="0.35" stroke="#EAD9CC" stroke-width="1.5"/>
  <circle cx="91" cy="168" r="10" fill="#EAD9CC" opacity="0.35" stroke="#EAD9CC" stroke-width="1.5"/>
  <circle cx="115" cy="168" r="10" fill="#EAD9CC" opacity="0.35" stroke="#EAD9CC" stroke-width="1.5"/>
  <circle cx="139" cy="168" r="10" fill="#EAD9CC" opacity="0.35" stroke="#EAD9CC" stroke-width="1.5"/>
  <circle cx="163" cy="168" r="10" fill="#EAD9CC" opacity="0.35" stroke="#EAD9CC" stroke-width="1.5"/>
  <circle cx="187" cy="168" r="10" fill="#EAD9CC" opacity="0.35" stroke="#EAD9CC" stroke-width="1.5"/>

  <!-- Row 3 (partial) -->
  <circle cx="67" cy="194" r="10" fill="#EAD9CC" opacity="0.25" stroke="#EAD9CC" stroke-width="1.5"/>
  <circle cx="91" cy="194" r="10" fill="#EAD9CC" opacity="0.25" stroke="#EAD9CC" stroke-width="1.5"/>
  <circle cx="115" cy="194" r="10" fill="#EAD9CC" opacity="0.25" stroke="#EAD9CC" stroke-width="1.5"/>

  <!-- Small floating elements -->
  <circle cx="200" cy="50" r="7" fill="#F5A623" opacity="0.45"/>
  <circle cx="38" cy="54" r="6" fill="#9B8EC4" opacity="0.4"/>
</svg>
